# xmcd
#
# Track frame offsets:
#	150
#	14410
#	32367
#	47662
#	63776
#	81012
#	98574
#	117803
#	134483
#	159631
#	173752
#	190714
#	212259
#	229923
#	261036
#	293389
#	322859
#
# Disc length: 4516 seconds
#
# Revision: 2
# Processed by: cddbd v1.5.1PL0 Copyright (c) Steve Scherf et al.
# Submitted via: EasyCDDAExtractor 8.0.2.1
#
DISCID=cd11a211
DTITLE=Lasgo - Far Away
DYEAR=2005
DGENRE=Dance
TTITLE0=Surrender
TTITLE1=All Night Long
TTITLE2=Deep In Your Heart
TTITLE3=Only You
TTITLE4=Still
TTITLE5=True
TTITLE6=Whos That Girl
TTITLE7=Yesterday
TTITLE8=Far Away
TTITLE9=Lyving
TTITLE10=Tell Me
TTITLE11=Tonight
TTITLE12=Hold Me Now
TTITLE13=Surrender(Pulsedriver's Vox Remix)
TTITLE14=All Night Long(Peter Luts Remix)
TTITLE15=All Night Long(Mccullen und Ritter Mix)
TTITLE16=All Night Long(Radio Edit)
EXTD=
EXTT0=
EXTT1=
EXTT2=
EXTT3=
EXTT4=
EXTT5=
EXTT6=
EXTT7=
EXTT8=
EXTT9=
EXTT10=
EXTT11=
EXTT12=
EXTT13=
EXTT14=
EXTT15=
EXTT16=
PLAYORDER=
